<?xml version="1.0" encoding="UTF-8"?>
<svg id="Capa_2" data-name="Capa 2" xmlns="http://www.w3.org/2000/svg" viewBox="0 0 668.84 289">
  <defs>
    <style>
      .cls-1 {
        fill: #291f16;
      }
    </style>
  </defs>
  <g id="Capa_1-2" data-name="Capa 1">
    <g>
      <g>
        <path d="M0,0h99.05c28.18,0,44.62,16.01,44.62,36.29,0,17.72-13.02,30.1-27.32,32.66,16.86,2.56,30.53,17.29,30.53,34.8,0,22.41-17.29,38.64-45.68,38.64H0V0ZM95.42,59.56c15.15,0,24.12-7.26,24.12-19.42s-8.97-19.21-24.12-19.21H23.7v38.64h71.73ZM96.49,121.47c16.65,0,26.26-7.69,26.26-20.71s-9.61-20.92-26.26-20.92H23.7v41.63h72.79Z"/>
        <path d="M158.19,90.73c0-32.45,25.4-54.01,62.97-54.01s62.97,21.56,62.97,54.01-25.4,54.22-62.97,54.22-62.97-21.77-62.97-54.22ZM221.17,125.95c24.33,0,40.56-14.52,40.56-35.22s-16.23-35.01-40.56-35.01-40.56,14.52-40.56,35.01,16.01,35.22,40.56,35.22Z"/>
        <path d="M301.01,39.28h21.35v14.94c12.17-9.82,28.18-17.29,46.11-17.29v20.92c-1.49-.21-3.63-.43-8.32-.43-16.23,0-31.17,6.4-37.78,13.66v71.3h-21.35V39.28Z"/>
        <path d="M372.1,90.73c0-34.37,24.97-54.01,55.07-54.01,19,0,33.73,8.54,42.69,17.93V0h21.56v142.39h-21.56v-15.37c-8.96,9.39-23.69,17.93-42.69,17.93-30.1,0-55.07-19.64-55.07-54.22ZM432.09,125.95c15.16,0,30.1-6.19,37.78-14.3v-41.63c-7.68-7.9-21.77-14.3-37.78-14.3-21.35,0-37.57,12.59-37.57,35.01s16.22,35.22,37.57,35.22Z"/>
        <path d="M508.3,90.73c0-32.87,27.32-54.01,61.69-54.01s60.2,22.63,60.2,56.57v5.55h-98.2c2.35,16.65,15.16,27.11,41.41,27.11,16.01,0,28.18-3.84,38.64-11.1l9.18,15.16c-13.02,9.61-28.39,14.94-49.95,14.94-34.37,0-62.97-18.36-62.97-54.22ZM608.42,81.55c-2.35-13.88-14.09-25.83-38.85-25.83-20.49,0-34.37,9.18-37.57,25.83h76.42Z"/>
        <path d="M639.38,130c0-8.33,6.4-14.73,14.73-14.73s14.73,6.4,14.73,14.73-6.4,14.73-14.73,14.73-14.73-6.62-14.73-14.73Z"/>
      </g>
      <g>
        <path class="cls-1" d="M0,217.86c0-10.74,8.75-18.08,21.49-18.08,7.49,0,13.36,2.41,17.35,7.18l-2.57,1.84c-3.2-4.04-8.44-6.13-14.78-6.13-10.9,0-18.08,6.08-18.08,15.2s7.18,15.15,18.08,15.15c6.18,0,11.58-2.15,14.67-5.92l2.67,1.84c-4.09,4.61-9.91,7.02-17.35,7.02-12.74,0-21.49-7.39-21.49-18.08Z"/>
        <path class="cls-1" d="M43.92,217.86c0-10.74,8.7-18.08,21.33-18.08s21.38,7.34,21.38,18.08-8.7,18.08-21.38,18.08-21.33-7.39-21.33-18.08ZM65.25,233c10.85,0,17.98-5.97,17.98-15.15s-7.13-15.2-17.98-15.2-17.92,6.08-17.92,15.2,7.08,15.15,17.92,15.15Z"/>
        <path class="cls-1" d="M95.23,200.35h3.51l29.72,30.76v-30.76h3.2v34.96h-3.35l-29.87-30.97v30.97h-3.2v-34.96Z"/>
        <path class="cls-1" d="M139.94,229.13l2.1-2.41c3.25,3.35,8.65,6.29,15.93,6.29,9.64,0,13.26-3.88,13.26-7.18,0-5.29-6.39-6.13-13.94-7.18-8.12-1.15-16.14-2.15-16.14-9.33,0-5.92,7.02-9.54,15.83-9.54,7.65,0,13.21,2.36,16.88,6.18l-2.31,2.31c-3.46-3.72-8.54-5.61-14.73-5.61-7.18,0-12.21,2.62-12.21,6.45,0,4.56,5.76,5.29,13.26,6.34,8.28,1.21,16.82,2.41,16.82,10.12,0,4.87-4.77,10.38-16.82,10.38-8.02,0-14.52-3.14-17.92-6.81Z"/>
        <path class="cls-1" d="M183.28,219.32v-18.97h3.2v18.97c0,8.33,5.14,13.68,14.57,13.68s14.57-5.35,14.57-13.68v-18.97h3.2v18.97c0,10.11-6.29,16.61-17.77,16.61s-17.77-6.6-17.77-16.61Z"/>
        <path class="cls-1" d="M229.41,200.35h3.2v32.02h24.32v2.94h-27.51v-34.96Z"/>
        <path class="cls-1" d="M269.13,203.29h-14.62v-2.94h32.49v2.94h-14.67v32.02h-3.2v-32.02Z"/>
        <path class="cls-1" d="M290.57,217.86c0-10.74,8.7-18.08,21.33-18.08s21.38,7.34,21.38,18.08-8.7,18.08-21.38,18.08-21.33-7.39-21.33-18.08ZM311.9,233c10.85,0,17.98-5.97,17.98-15.15s-7.13-15.2-17.98-15.2-17.92,6.08-17.92,15.2,7.08,15.15,17.92,15.15Z"/>
        <path class="cls-1" d="M341.88,200.35h21.07c6.81,0,12.16,3.25,12.16,10.27s-5.03,9.96-11.84,10.27l12.47,14.41h-4.19l-12.21-14.36h-14.25v14.36h-3.2v-34.96ZM362.9,218.01c5.82,0,8.86-2.67,8.86-7.39s-3.04-7.39-8.86-7.39h-17.82v14.78h17.82Z"/>
        <path class="cls-1" d="M397.38,200.35h3.88l18.13,34.96h-3.72l-4.35-8.54h-23.95l-4.35,8.54h-3.72l18.08-34.96ZM409.81,223.83l-10.48-20.54-10.43,20.54h20.91Z"/>
        <path class="cls-1" d="M1.99,272.39v-18.97h3.2v18.97c0,8.33,5.14,13.68,14.57,13.68s14.57-5.35,14.57-13.68v-18.97h3.2v18.97c0,10.11-6.29,16.61-17.77,16.61s-17.77-6.6-17.77-16.61Z"/>
        <path class="cls-1" d="M48.11,253.42h21.07c6.81,0,12.16,3.25,12.16,10.27s-5.03,9.96-11.84,10.27l12.47,14.41h-4.19l-12.21-14.36h-14.25v14.36h-3.2v-34.96ZM69.13,271.08c5.82,0,8.86-2.67,8.86-7.39s-3.04-7.39-8.86-7.39h-17.82v14.78h17.82Z"/>
        <path class="cls-1" d="M89.83,253.42h21.86c6.76,0,10.9,3.62,10.9,8.91,0,4.3-2.94,7.18-6.71,8.02,4.3.73,7.49,4.19,7.49,8.59,0,5.66-4.35,9.43-11.37,9.43h-22.17v-34.96ZM111.32,269.03c4.87,0,7.91-2.46,7.91-6.34s-3.04-6.39-7.91-6.39h-18.29v12.74h18.29ZM111.58,285.44c5.4,0,8.44-2.41,8.44-6.76s-3.04-6.81-8.44-6.81h-18.55v13.57h18.55Z"/>
        <path class="cls-1" d="M145.91,253.42h3.88l18.13,34.96h-3.72l-4.35-8.54h-23.95l-4.35,8.54h-3.72l18.08-34.96ZM158.33,276.9l-10.48-20.54-10.43,20.54h20.91Z"/>
        <path class="cls-1" d="M174.22,253.42h3.51l29.72,30.76v-30.76h3.2v34.96h-3.35l-29.87-30.97v30.97h-3.2v-34.96Z"/>
        <path class="cls-1" d="M235.01,253.42h3.88l18.13,34.96h-3.72l-4.35-8.54h-23.95l-4.35,8.54h-3.72l18.08-34.96ZM247.43,276.9l-10.48-20.54-10.43,20.54h20.91Z"/>
      </g>
    </g>
  </g>
</svg>