<?xml version="1.0" encoding="UTF-8"?>
<svg id="Capa_2" data-name="Capa 2" xmlns="http://www.w3.org/2000/svg" viewBox="0 0 967.1 206.29">
  <defs>
    <style>
      .cls-1 {
        fill: #291f16;
      }

      .cls-2 {
        fill: #f2f2f2;
      }

      .cls-3 {
        fill: #1a1a1a;
      }
    </style>
  </defs>
  <g id="Capa_1-2" data-name="Capa 1">
    <g>
      <g>
        <path class="cls-3" d="M453.76,21.04v147.65c0,3.67-1.26,7.28-3.54,10.16l-16.76,21.21c-3.12,3.96-7.81,6.22-12.86,6.22h-76.56c-4.09,0-8.04-1.2-11.44-3.45l-33.85-22.51c-.58-.39-1.26-.59-1.96-.59h-16.22c-1.96,0-3.55,1.59-3.55,3.55v13.63c0,5.17-4.2,9.37-9.37,9.37H12.71c-7.01,0-12.71-5.7-12.71-12.71V45.94c0-2.93,1.11-5.72,3.14-7.85L36.01,3.54c2.13-2.24,5.15-3.54,8.25-3.54h105.54c2.36,0,4.58.92,6.24,2.59,1.67,1.67,2.58,3.89,2.57,6.24,0,2.37,1.21,4.52,3.23,5.75,2.03,1.22,4.49,1.3,6.59.18l25.96-13.73c1.26-.68,2.69-1.03,4.12-1.03h234.22c11.6,0,21.04,9.44,21.04,21.04Z"/>
        <g>
          <path class="cls-2" d="M51.34,61.62h52.63c14.97,0,23.7,8.51,23.7,19.28,0,9.41-6.92,15.99-14.52,17.35,8.96,1.36,16.22,9.19,16.22,18.49,0,11.91-9.19,20.53-24.27,20.53h-53.76V61.62ZM102.03,93.27c8.05,0,12.82-3.86,12.82-10.32s-4.76-10.21-12.82-10.21h-38.11v20.53h38.11ZM102.6,126.16c8.85,0,13.95-4.08,13.95-11s-5.1-11.11-13.95-11.11h-38.68v22.12h38.68Z"/>
          <path class="cls-2" d="M135.38,109.83c0-17.24,13.5-28.69,33.46-28.69s33.46,11.46,33.46,28.69-13.5,28.81-33.46,28.81-33.46-11.57-33.46-28.81ZM168.84,128.54c12.93,0,21.55-7.71,21.55-18.71s-8.62-18.6-21.55-18.6-21.55,7.71-21.55,18.6,8.51,18.71,21.55,18.71Z"/>
          <path class="cls-2" d="M211.25,82.49h11.34v7.94c6.46-5.22,14.97-9.19,24.5-9.19v11.12c-.79-.11-1.93-.23-4.42-.23-8.62,0-16.56,3.4-20.08,7.26v37.88h-11.34v-54.78Z"/>
          <path class="cls-2" d="M249.02,109.83c0-18.26,13.27-28.69,29.26-28.69,10.09,0,17.92,4.54,22.68,9.53v-29.04h11.46v75.65h-11.46v-8.17c-4.76,4.99-12.59,9.53-22.68,9.53-15.99,0-29.26-10.43-29.26-28.81ZM280.89,128.54c8.05,0,15.99-3.29,20.08-7.6v-22.12c-4.08-4.2-11.57-7.6-20.08-7.6-11.34,0-19.96,6.69-19.96,18.6s8.62,18.71,19.96,18.71Z"/>
          <path class="cls-2" d="M321.38,109.83c0-17.47,14.52-28.69,32.78-28.69s31.98,12.02,31.98,30.06v2.95h-52.17c1.25,8.85,8.05,14.4,22,14.4,8.51,0,14.97-2.04,20.53-5.9l4.88,8.05c-6.92,5.1-15.08,7.94-26.54,7.94-18.26,0-33.46-9.75-33.46-28.81ZM374.57,104.95c-1.25-7.37-7.49-13.72-20.64-13.72-10.89,0-18.26,4.88-19.96,13.72h40.6Z"/>
          <path class="cls-2" d="M391.02,130.69c0-4.42,3.4-7.83,7.83-7.83s7.83,3.4,7.83,7.83-3.4,7.83-7.83,7.83-7.83-3.52-7.83-7.83Z"/>
        </g>
      </g>
      <g>
        <path class="cls-1" d="M508.57,74.76c0-11.74,9.58-19.67,23.89-19.67,8.95,0,15.51,3.14,19.55,8.44l-4.16,2.85c-3.42-4.39-8.55-6.67-15.39-6.67-11.17,0-18.47,5.99-18.47,15.05s7.3,15.05,18.47,15.05c6.73,0,11.97-2.34,15.11-6.38l4.45,2.79c-4.1,5.07-10.66,8.21-19.55,8.21-14.31,0-23.89-7.92-23.89-19.67Z"/>
        <path class="cls-1" d="M556.74,74.76c0-11.74,9.46-19.67,23.54-19.67s23.49,7.92,23.49,19.67-9.46,19.67-23.49,19.67-23.54-7.92-23.54-19.67ZM580.29,89.81c10.95,0,18.07-5.99,18.07-15.05s-7.13-15.05-18.07-15.05-18.13,5.99-18.13,15.05,7.18,15.05,18.13,15.05Z"/>
        <path class="cls-1" d="M612.09,55.72h5.53l29.7,31.18v-31.18h5.19v38.02h-5.19l-30.04-31.58v31.58h-5.19v-38.02Z"/>
        <path class="cls-1" d="M660.37,87.07l3.25-3.82c3.65,3.53,9.58,6.56,17.1,6.56,9.18,0,13.11-3.25,13.11-6.61,0-4.79-5.87-5.64-13.97-6.61-9.29-1.08-18.19-2.39-18.19-10.66,0-6.67,7.47-10.83,17.9-10.83,8.27,0,14.48,2.45,18.7,6.67l-3.31,3.71c-3.59-3.53-8.89-5.76-15.68-5.76-7.47,0-12.14,2.28-12.14,5.81,0,4.16,5.19,4.9,13.57,6.04,9.41,1.25,18.58,2.62,18.58,11.12,0,5.93-5.87,11.74-18.81,11.74-8.78,0-16.42-3.53-20.12-7.35Z"/>
        <path class="cls-1" d="M707.46,76.3v-20.58h5.19v20.58c0,8.27,5.36,13.45,14.76,13.45s14.71-5.19,14.71-13.45v-20.58h5.19v20.58c0,11.06-7.3,18.13-19.9,18.13s-19.95-7.13-19.95-18.13Z"/>
        <path class="cls-1" d="M757.73,55.72h5.19v33.41h25.6v4.62h-30.78v-38.02Z"/>
        <path class="cls-1" d="M801.11,60.39h-15.62v-4.67h36.48v4.67h-15.68v33.35h-5.19v-33.35Z"/>
        <path class="cls-1" d="M825.34,74.76c0-11.74,9.46-19.67,23.54-19.67s23.49,7.92,23.49,19.67-9.46,19.67-23.49,19.67-23.54-7.92-23.54-19.67ZM848.88,89.81c10.95,0,18.07-5.99,18.07-15.05s-7.13-15.05-18.07-15.05-18.13,5.99-18.13,15.05,7.18,15.05,18.13,15.05Z"/>
        <path class="cls-1" d="M880.69,55.72h24.46c7.87,0,13.51,3.88,13.51,11.57,0,7.18-4.67,10.55-11.74,11.4l12.54,15.05h-6.67l-11.97-14.82h-14.94v14.82h-5.19v-38.02ZM904.97,74.3c5.42,0,8.32-2.57,8.32-7.01s-2.91-6.96-8.32-6.96h-19.1v13.97h19.1Z"/>
        <path class="cls-1" d="M941.62,55.72h6.27l19.21,38.02h-5.87l-4.16-8.38h-24.63l-4.16,8.38h-5.87l19.21-38.02ZM954.79,80.74l-10.03-20.35-10.03,20.35h20.07Z"/>
        <path class="cls-1" d="M510.63,134.01v-20.58h5.19v20.58c0,8.27,5.36,13.45,14.76,13.45s14.71-5.19,14.71-13.45v-20.58h5.19v20.58c0,11.06-7.3,18.13-19.9,18.13s-19.95-7.13-19.95-18.13Z"/>
        <path class="cls-1" d="M560.9,113.43h24.46c7.87,0,13.51,3.88,13.51,11.57,0,7.18-4.67,10.55-11.74,11.4l12.54,15.05h-6.67l-11.97-14.82h-14.94v14.82h-5.19v-38.02ZM585.19,132.01c5.42,0,8.32-2.57,8.32-7.01s-2.91-6.96-8.32-6.96h-19.1v13.97h19.1Z"/>
        <path class="cls-1" d="M607.19,113.43h25.42c7.41,0,11.86,4.16,11.86,9.69,0,4.67-3.36,7.92-7.3,8.72,4.56.74,8.15,4.62,8.15,9.29,0,6.1-4.62,10.32-12.26,10.32h-25.88v-38.02ZM631.87,129.79c4.5,0,7.3-2.28,7.3-5.87s-2.79-5.87-7.3-5.87h-19.5v11.74h19.5ZM632.1,146.84c5.02,0,7.92-2.28,7.92-6.27s-2.91-6.33-7.92-6.33h-19.72v12.6h19.72Z"/>
        <path class="cls-1" d="M668.58,113.43h6.27l19.21,38.02h-5.87l-4.16-8.38h-24.63l-4.16,8.38h-5.87l19.21-38.02ZM681.75,138.46l-10.03-20.35-10.03,20.35h20.07Z"/>
        <path class="cls-1" d="M699.87,113.43h5.53l29.7,31.18v-31.18h5.19v38.02h-5.19l-30.04-31.58v31.58h-5.19v-38.02Z"/>
        <path class="cls-1" d="M765.31,113.43h6.27l19.21,38.02h-5.87l-4.16-8.38h-24.63l-4.16,8.38h-5.87l19.21-38.02ZM778.48,138.46l-10.03-20.35-10.03,20.35h20.07Z"/>
      </g>
    </g>
  </g>
</svg>