<?xml version="1.0" encoding="UTF-8"?>
<svg id="Capa_2" data-name="Capa 2" xmlns="http://www.w3.org/2000/svg" viewBox="0 0 533.52 241.06">
  <defs>
    <style>
      .cls-1 {
        fill: #1a1a1a;
      }

      .cls-2 {
        fill: #e6e3de;
      }
    </style>
  </defs>
  <g id="Capa_1-2" data-name="Capa 1">
    <g>
      <path class="cls-1" d="M499.07,31.64h-140.24c-3.5,0-6.86-1.35-9.39-3.76l-24.5-23.37c-3.03-2.89-7.07-4.51-11.26-4.51h-95.08c-5.36,0-9.71,4.35-9.71,9.71v16.11c0,3.07-2.49,5.56-5.56,5.56h-19.19c-1.09,0-2.16-.32-3.08-.93L141.06,3.85c-3.78-2.51-8.22-3.85-12.76-3.85H37.8c-5.5,0-10.7,2.52-14.11,6.83L3.88,31.91c-2.51,3.18-3.88,7.11-3.88,11.15v174.49c0,12.98,10.52,23.5,23.5,23.5h276.81c1.47,0,2.92-.36,4.23-1.05l30.67-16.23c6.19-3.27,13.63,1.23,13.61,8.23-.02,4.98,4.46,9.05,9.45,9.05h124.32c3.31,0,6.47-1.36,8.75-3.75l38.85-40.84c2.14-2.25,3.33-5.23,3.33-8.33V42.05c0-5.75-4.66-10.41-10.41-10.41h-24.05Z"/>
      <g>
        <path class="cls-2" d="M311.07,118.33c0-4.47,3.65-7.44,9.15-7.44,3.6,0,6.13,1.34,7.59,3.37l-1.94,1.27c-1.25-1.66-3.06-2.52-5.65-2.52-4.03,0-6.67,2.14-6.67,5.33s2.63,5.33,6.67,5.33c2.55,0,4.4-.86,5.5-2.37l2.09,1.25c-1.49,1.9-4.01,3.24-7.59,3.24-5.5,0-9.15-2.98-9.15-7.44Z"/>
        <path class="cls-2" d="M329.4,118.33c0-4.47,3.58-7.44,8.98-7.44s8.98,2.98,8.98,7.44-3.58,7.44-8.98,7.44-8.98-2.98-8.98-7.44ZM338.37,123.66c3.93,0,6.49-2.11,6.49-5.33s-2.57-5.33-6.49-5.33-6.49,2.14-6.49,5.33,2.57,5.33,6.49,5.33Z"/>
        <path class="cls-2" d="M350.26,111.12h2.52l10.57,11.22v-11.22h2.37v14.39h-2.35l-10.72-11.41v11.41h-2.39v-14.39Z"/>
        <path class="cls-2" d="M368.48,122.99l1.47-1.73c1.4,1.32,3.67,2.4,6.43,2.4,3.11,0,4.6-.99,4.6-2.18,0-1.6-1.92-1.88-4.98-2.2-3.62-.39-7.01-.95-7.01-4.16,0-2.59,2.78-4.23,6.95-4.23,3.09,0,5.5.91,7.16,2.5l-1.49,1.7c-1.29-1.21-3.26-2.09-5.85-2.09s-4.27.71-4.27,1.9c0,1.4,1.66,1.66,4.92,2.07,3.62.45,7.08,1.01,7.08,4.25,0,2.42-2.4,4.55-7.23,4.55-3.34,0-6.36-1.38-7.77-2.78Z"/>
        <path class="cls-2" d="M386.3,118.89v-7.77h2.4v7.77c0,2.93,1.96,4.73,5.29,4.73s5.31-1.79,5.31-4.73v-7.77h2.39v7.77c0,4.23-2.89,6.88-7.7,6.88s-7.68-2.68-7.68-6.88Z"/>
        <path class="cls-2" d="M405.36,111.12h2.4v12.28h9.47v2.11h-11.87v-14.39Z"/>
        <path class="cls-2" d="M421.84,113.26h-5.87v-2.14h14.11v2.14h-5.87v12.25h-2.37v-12.25Z"/>
        <path class="cls-2" d="M431.23,118.33c0-4.47,3.58-7.44,8.98-7.44s8.98,2.98,8.98,7.44-3.58,7.44-8.98,7.44-8.98-2.98-8.98-7.44ZM440.21,123.66c3.93,0,6.49-2.11,6.49-5.33s-2.57-5.33-6.49-5.33-6.49,2.14-6.49,5.33,2.57,5.33,6.49,5.33Z"/>
        <path class="cls-2" d="M452.1,111.12h9.64c3.09,0,5.16,1.58,5.16,4.47,0,2.63-1.6,3.95-4.19,4.36l4.51,5.57h-3.04l-4.21-5.42h-5.48v5.42h-2.39v-14.39ZM461.66,117.98c1.81,0,2.8-.86,2.8-2.4s-.99-2.35-2.8-2.35h-7.16v4.75h7.16Z"/>
        <path class="cls-2" d="M475.27,111.12h2.91l7.14,14.39h-2.7l-1.42-2.96h-8.95l-1.42,2.96h-2.7l7.14-14.39ZM480.19,120.44l-3.47-7.18-3.45,7.18h6.93Z"/>
        <path class="cls-2" d="M311.83,140.74v-7.77h2.4v7.77c0,2.93,1.96,4.73,5.29,4.73s5.31-1.79,5.31-4.73v-7.77h2.39v7.77c0,4.23-2.89,6.88-7.7,6.88s-7.68-2.68-7.68-6.88Z"/>
        <path class="cls-2" d="M330.88,132.97h9.64c3.09,0,5.16,1.58,5.16,4.47,0,2.63-1.6,3.95-4.19,4.36l4.51,5.57h-3.04l-4.21-5.42h-5.48v5.42h-2.4v-14.39ZM340.44,139.83c1.81,0,2.8-.86,2.8-2.4s-.99-2.35-2.8-2.35h-7.16v4.75h7.16Z"/>
        <path class="cls-2" d="M348.62,132.97h10.01c2.85,0,4.51,1.62,4.51,3.67,0,1.79-1.32,3.04-2.76,3.3,1.7.26,3.09,1.75,3.09,3.52,0,2.27-1.75,3.91-4.62,3.91h-10.23v-14.39ZM358.27,138.99c1.53,0,2.44-.73,2.44-1.96s-.91-1.94-2.44-1.94h-7.25v3.91h7.25ZM358.37,145.25c1.68,0,2.65-.78,2.65-2.09s-.97-2.11-2.65-2.11h-7.36v4.21h7.36Z"/>
        <path class="cls-2" d="M371.95,132.97h2.91l7.14,14.39h-2.7l-1.42-2.96h-8.95l-1.42,2.96h-2.7l7.14-14.39ZM376.87,142.29l-3.47-7.18-3.45,7.18h6.93Z"/>
        <path class="cls-2" d="M383.97,132.97h2.52l10.57,11.22v-11.22h2.37v14.39h-2.35l-10.72-11.41v11.41h-2.4v-14.39Z"/>
        <path class="cls-2" d="M408.57,132.97h2.91l7.14,14.39h-2.7l-1.42-2.96h-8.95l-1.42,2.96h-2.7l7.14-14.39ZM413.49,142.29l-3.47-7.18-3.45,7.18h6.93Z"/>
      </g>
      <g>
        <path class="cls-2" d="M55.09,92.7h43.31c12.32,0,19.51,7,19.51,15.87,0,7.75-5.69,13.16-11.95,14.28,7.37,1.12,13.35,7.56,13.35,15.21,0,9.8-7.56,16.89-19.97,16.89h-44.24v-62.26ZM96.81,118.74c6.63,0,10.55-3.17,10.55-8.49s-3.92-8.4-10.55-8.4h-31.36v16.89h31.36ZM97.28,145.81c7.28,0,11.48-3.36,11.48-9.05s-4.2-9.15-11.48-9.15h-31.83v18.2h31.83Z"/>
        <path class="cls-2" d="M127.51,109.87h9.33v6.53c5.32-4.29,12.32-7.56,20.16-7.56v9.15c-.65-.09-1.59-.19-3.64-.19-7.09,0-13.63,2.8-16.52,5.97v31.17h-9.33v-45.08Z"/>
        <path class="cls-2" d="M158.59,132.37c0-15.03,10.92-23.61,24.08-23.61,8.31,0,14.75,3.73,18.67,7.84v-23.89h9.43v62.26h-9.43v-6.72c-3.92,4.11-10.36,7.84-18.67,7.84-13.16,0-24.08-8.59-24.08-23.71ZM184.82,147.77c6.63,0,13.16-2.71,16.52-6.25v-18.2c-3.36-3.45-9.52-6.25-16.52-6.25-9.33,0-16.43,5.51-16.43,15.31s7.09,15.4,16.43,15.4Z"/>
        <path class="cls-2" d="M219.16,149.54c0-3.64,2.8-6.44,6.44-6.44s6.44,2.8,6.44,6.44-2.8,6.44-6.44,6.44-6.44-2.89-6.44-6.44Z"/>
        <path class="cls-2" d="M226.91,92.7h19.79v2.43h-8.59v18.11h-2.61v-18.11h-8.59v-2.43ZM272.09,96.25l-8.87,16.99h-.75l-8.87-16.99v16.99h-2.61v-20.53h3.64l8.21,15.77,8.21-15.77h3.64v20.53h-2.61v-16.99Z"/>
      </g>
    </g>
  </g>
</svg>