<?xml version="1.0" encoding="UTF-8"?>
<svg id="Capa_2" data-name="Capa 2" xmlns="http://www.w3.org/2000/svg" viewBox="0 0 647.04 297.55">
  <defs>
    <style>
      .cls-1 {
        fill: #1a1a1a;
      }
    </style>
  </defs>
  <g id="Capa_1-2" data-name="Capa 1">
    <g>
      <path class="cls-1" d="M597.1,297.55h-108.12c-6.37,0-12.55-1.86-17.88-5.39l-47.82-31.79c-.31-.21-.67-.32-1.05-.32h-22.91c-1.05,0-1.9.85-1.9,1.9v19.25c0,9.01-7.33,16.35-16.35,16.35H21.07c-11.62,0-21.07-9.45-21.07-21.07V67.99c0-4.94,1.88-9.63,5.28-13.22L51.71,5.96c3.6-3.79,8.67-5.96,13.9-5.96h149.04c4.17,0,8.09,1.63,11.02,4.58,2.94,2.94,4.55,6.85,4.53,11.02,0,2.23,1.15,4.27,3.07,5.45,1.91,1.15,4.24,1.22,6.22.17L276.16,1.81c2.2-1.18,4.72-1.81,7.27-1.81h330.77c18.11,0,32.83,14.73,32.83,32.83v208.51c0,5.87-2.01,11.65-5.66,16.28l-23.66,29.96c-5,6.34-12.51,9.97-20.6,9.97ZM399.33,253.83h22.91c1.61,0,3.16.47,4.5,1.36l47.81,31.79c4.3,2.85,9.29,4.35,14.43,4.35h108.12c6.17,0,11.9-2.77,15.71-7.6l23.67-29.96c2.79-3.53,4.32-7.94,4.32-12.42V32.83c0-14.67-11.93-26.6-26.61-26.6h-330.77c-1.52,0-3.02.37-4.34,1.08l-36.68,19.4c-3.92,2.08-8.54,1.96-12.36-.34-3.81-2.33-6.07-6.36-6.07-10.79.01-2.5-.95-4.84-2.71-6.6-1.76-1.77-4.1-2.75-6.6-2.75H65.61c-3.53,0-6.96,1.47-9.39,4.03L9.8,59.06c-2.3,2.43-3.57,5.6-3.57,8.93v208.49c0,8.18,6.66,14.84,14.84,14.84h360.01c5.58,0,10.12-4.54,10.12-10.12v-19.25c0-4.48,3.64-8.12,8.12-8.12Z"/>
      <g>
        <path class="cls-1" d="M75.61,90.14h74.32c21.14,0,33.48,12.01,33.48,27.23,0,13.29-9.77,22.58-20.5,24.51,12.65,1.92,22.9,12.97,22.9,26.11,0,16.82-12.97,28.99-34.28,28.99h-75.92v-106.83ZM147.21,134.83c11.37,0,18.1-5.45,18.1-14.57s-6.73-14.42-18.1-14.42h-53.82v28.99h53.82ZM148.01,181.28c12.49,0,19.7-5.77,19.7-15.54s-7.21-15.7-19.7-15.7h-54.62v31.23h54.62Z"/>
        <path class="cls-1" d="M194.3,158.21c0-24.35,19.06-40.52,47.25-40.52s47.25,16.18,47.25,40.52-19.06,40.68-47.25,40.68-47.25-16.34-47.25-40.68ZM241.55,184.64c18.26,0,30.43-10.89,30.43-26.43s-12.17-26.27-30.43-26.27-30.43,10.89-30.43,26.27,12.01,26.43,30.43,26.43Z"/>
        <path class="cls-1" d="M301.45,119.61h16.02v11.21c9.13-7.37,21.14-12.97,34.6-12.97v15.7c-1.12-.16-2.72-.32-6.25-.32-12.17,0-23.39,4.81-28.35,10.25v53.5h-16.02v-77.36Z"/>
        <path class="cls-1" d="M354.79,158.21c0-25.79,18.74-40.52,41.32-40.52,14.26,0,25.31,6.41,32.03,13.45v-41h16.18v106.83h-16.18v-11.53c-6.73,7.05-17.78,13.45-32.03,13.45-22.58,0-41.32-14.74-41.32-40.68ZM399.8,184.64c11.37,0,22.58-4.64,28.35-10.73v-31.23c-5.77-5.93-16.34-10.73-28.35-10.73-16.02,0-28.19,9.45-28.19,26.27s12.17,26.43,28.19,26.43Z"/>
        <path class="cls-1" d="M456.98,158.21c0-24.67,20.5-40.52,46.29-40.52s45.17,16.98,45.17,42.45v4.16h-73.68c1.76,12.49,11.37,20.34,31.07,20.34,12.01,0,21.14-2.88,28.99-8.33l6.89,11.37c-9.77,7.21-21.3,11.21-37.48,11.21-25.79,0-47.25-13.78-47.25-40.68ZM532.1,151.32c-1.76-10.41-10.57-19.38-29.15-19.38-15.38,0-25.79,6.89-28.19,19.38h57.34Z"/>
        <path class="cls-1" d="M555.32,187.68c0-6.25,4.81-11.05,11.05-11.05s11.05,4.8,11.05,11.05-4.81,11.05-11.05,11.05-11.05-4.96-11.05-11.05Z"/>
      </g>
    </g>
  </g>
</svg>