<?xml version="1.0" encoding="UTF-8"?>
<svg id="Capa_2" data-name="Capa 2" xmlns="http://www.w3.org/2000/svg" viewBox="0 0 306.12 218.39">
  <defs>
    <style>
      .cls-1 {
        fill: #291f16;
      }
    </style>
  </defs>
  <g id="Capa_1-2" data-name="Capa 1">
    <g>
      <g>
        <path class="cls-1" d="M.15,171.71c0-7.08,5.78-11.87,14.41-11.87,5.4,0,9.35,1.89,11.8,5.09l-2.51,1.72c-2.06-2.65-5.16-4.02-9.29-4.02-6.74,0-11.14,3.61-11.14,9.08s4.4,9.08,11.14,9.08c4.06,0,7.22-1.41,9.11-3.85l2.68,1.69c-2.48,3.06-6.43,4.95-11.8,4.95-8.63,0-14.41-4.78-14.41-11.87Z"/>
        <path class="cls-1" d="M29.21,171.71c0-7.08,5.71-11.87,14.2-11.87s14.17,4.78,14.17,11.87-5.71,11.87-14.17,11.87-14.2-4.78-14.2-11.87ZM43.42,180.79c6.6,0,10.9-3.61,10.9-9.08s-4.3-9.08-10.9-9.08-10.94,3.61-10.94,9.08,4.33,9.08,10.94,9.08Z"/>
        <path class="cls-1" d="M62.61,160.22h3.34l17.92,18.81v-18.81h3.13v22.94h-3.13l-18.13-19.05v19.05h-3.13v-22.94Z"/>
        <path class="cls-1" d="M91.73,179.14l1.96-2.3c2.2,2.13,5.78,3.96,10.32,3.96,5.54,0,7.91-1.96,7.91-3.99,0-2.89-3.54-3.4-8.43-3.99-5.61-.65-10.97-1.44-10.97-6.43,0-4.02,4.51-6.53,10.8-6.53,4.99,0,8.74,1.48,11.28,4.02l-1.99,2.24c-2.17-2.13-5.37-3.47-9.46-3.47-4.51,0-7.33,1.38-7.33,3.51,0,2.51,3.13,2.96,8.19,3.65,5.68.76,11.21,1.58,11.21,6.71,0,3.58-3.54,7.08-11.35,7.08-5.3,0-9.91-2.13-12.14-4.44Z"/>
        <path class="cls-1" d="M120.14,172.64v-12.42h3.13v12.42c0,4.99,3.23,8.12,8.91,8.12s8.87-3.13,8.87-8.12v-12.42h3.13v12.42c0,6.67-4.4,10.94-12,10.94s-12.04-4.3-12.04-10.94Z"/>
        <path class="cls-1" d="M150.47,160.22h3.13v20.15h15.44v2.79h-18.57v-22.94Z"/>
        <path class="cls-1" d="M176.65,163.04h-9.42v-2.82h22.01v2.82h-9.46v20.12h-3.13v-20.12Z"/>
        <path class="cls-1" d="M191.26,171.71c0-7.08,5.71-11.87,14.2-11.87s14.17,4.78,14.17,11.87-5.71,11.87-14.17,11.87-14.2-4.78-14.2-11.87ZM205.47,180.79c6.6,0,10.9-3.61,10.9-9.08s-4.3-9.08-10.9-9.08-10.94,3.61-10.94,9.08,4.33,9.08,10.94,9.08Z"/>
        <path class="cls-1" d="M224.66,160.22h14.75c4.75,0,8.15,2.34,8.15,6.98,0,4.33-2.82,6.36-7.08,6.88l7.57,9.08h-4.02l-7.22-8.94h-9.01v8.94h-3.13v-22.94ZM239.31,171.43c3.27,0,5.02-1.55,5.02-4.23s-1.75-4.2-5.02-4.2h-11.52v8.43h11.52Z"/>
        <path class="cls-1" d="M261.42,160.22h3.78l11.59,22.94h-3.54l-2.51-5.06h-14.86l-2.51,5.06h-3.54l11.59-22.94ZM269.37,175.32l-6.05-12.28-6.05,12.28h12.11Z"/>
        <path class="cls-1" d="M1.39,207.45v-12.42h3.13v12.42c0,4.99,3.23,8.12,8.91,8.12s8.87-3.13,8.87-8.12v-12.42h3.13v12.42c0,6.67-4.4,10.94-12,10.94s-12.04-4.3-12.04-10.94Z"/>
        <path class="cls-1" d="M31.72,195.04h14.75c4.75,0,8.15,2.34,8.15,6.98,0,4.33-2.82,6.36-7.08,6.88l7.57,9.08h-4.02l-7.22-8.94h-9.01v8.94h-3.13v-22.94ZM46.37,206.25c3.27,0,5.02-1.55,5.02-4.23s-1.75-4.2-5.02-4.2h-11.52v8.43h11.52Z"/>
        <path class="cls-1" d="M59.65,195.04h15.34c4.47,0,7.15,2.51,7.15,5.85,0,2.82-2.03,4.78-4.4,5.26,2.75.45,4.92,2.79,4.92,5.61,0,3.68-2.79,6.23-7.39,6.23h-15.61v-22.94ZM74.54,204.91c2.72,0,4.4-1.38,4.4-3.54s-1.69-3.54-4.4-3.54h-11.76v7.08h11.76ZM74.68,215.19c3.03,0,4.78-1.38,4.78-3.78s-1.75-3.82-4.78-3.82h-11.9v7.6h11.9Z"/>
        <path class="cls-1" d="M96.69,195.04h3.78l11.59,22.94h-3.54l-2.51-5.06h-14.86l-2.51,5.06h-3.54l11.59-22.94ZM104.63,210.14l-6.05-12.28-6.05,12.28h12.11Z"/>
        <path class="cls-1" d="M115.57,195.04h3.34l17.92,18.81v-18.81h3.13v22.94h-3.13l-18.13-19.05v19.05h-3.13v-22.94Z"/>
        <path class="cls-1" d="M155.05,195.04h3.78l11.59,22.94h-3.54l-2.51-5.06h-14.86l-2.51,5.06h-3.54l11.59-22.94ZM162.99,210.14l-6.05-12.28-6.05,12.28h12.11Z"/>
      </g>
      <g>
        <path class="cls-1" d="M0,0h81.35c23.14,0,36.64,13.15,36.64,29.81,0,14.55-10.69,24.72-22.44,26.82,13.85,2.1,25.07,14.2,25.07,28.58,0,18.41-14.2,31.73-37.52,31.73H0V0ZM78.37,48.92c12.45,0,19.81-5.96,19.81-15.95s-7.36-15.78-19.81-15.78H19.46v31.73h58.91ZM79.25,99.76c13.68,0,21.56-6.31,21.56-17.01s-7.89-17.18-21.56-17.18H19.46v34.19h59.79Z"/>
        <path class="cls-1" d="M127.29,32.26h17.53v12.27c9.99-8.06,23.14-14.2,37.87-14.2v17.18c-1.23-.18-2.98-.35-6.84-.35-13.32,0-25.6,5.26-31.03,11.22v58.56h-17.53V32.26Z"/>
        <path class="cls-1" d="M176.9,74.51c0-28.23,20.51-44.36,45.23-44.36,15.6,0,27.7,7.01,35.06,14.73V0h17.71v116.94h-17.71v-12.62c-7.36,7.71-19.46,14.73-35.06,14.73-24.72,0-45.23-16.13-45.23-44.53ZM226.17,103.44c12.45,0,24.72-5.08,31.03-11.75v-34.19c-6.31-6.49-17.88-11.75-31.03-11.75-17.53,0-30.86,10.34-30.86,28.75s13.32,28.93,30.86,28.93Z"/>
        <path class="cls-1" d="M281.92,106.77c0-6.84,5.26-12.1,12.1-12.1s12.1,5.26,12.1,12.1-5.26,12.1-12.1,12.1-12.1-5.44-12.1-12.1Z"/>
      </g>
    </g>
  </g>
</svg>